HIERARCHY
ROOT joint_Root
{
	OFFSET 0.0 0.0 0.0
	CHANNELS 6 Xposition Yposition Zposition Zrotation Xrotation Yrotation 
	JOINT Hips
	{
		OFFSET 4.5925 91.4895 -427.239
		CHANNELS 6 Xposition Yposition Zposition Zrotation Xrotation Yrotation 
		JOINT Spine
		{
			OFFSET 15.7357 0.0 0.0
			CHANNELS 6 Xposition Yposition Zposition Zrotation Xrotation Yrotation 
			JOINT Chest
			{
				OFFSET 8.98455 -0.406207 0.0
				CHANNELS 6 Xposition Yposition Zposition Zrotation Xrotation Yrotation 
				JOINT Neck
				{
					OFFSET 16.3773 0.0 0.0
					CHANNELS 6 Xposition Yposition Zposition Zrotation Xrotation Yrotation 
					JOINT Head
					{
						OFFSET 6.45672 0.0 0.0
						CHANNELS 6 Xposition Yposition Zposition Zrotation Xrotation Yrotation 
						End Site
						{
							OFFSET 0.0 0.0 0.0
						}
					}
				}
				JOINT Shoulder_L
				{
					OFFSET 12.9942 -0.242716 4.98039
					CHANNELS 6 Xposition Yposition Zposition Zrotation Xrotation Yrotation 
					JOINT UpperArm_L
					{
						OFFSET 5.34809 0.0 0.0
						CHANNELS 6 Xposition Yposition Zposition Zrotation Xrotation Yrotation 
						JOINT LowerArm_L
						{
							OFFSET 24.3286 1.87007e-05 0.0
							CHANNELS 6 Xposition Yposition Zposition Zrotation Xrotation Yrotation 
							JOINT Hand_L
							{
								OFFSET 22.2916 0.0 0.0
								CHANNELS 6 Xposition Yposition Zposition Zrotation Xrotation Yrotation 
								End Site
								{
									OFFSET 0.0 0.0 0.0
								}
							}
						}
					}
				}
				JOINT Shoulder_R
				{
					OFFSET 12.9945 -0.242716 -4.98039
					CHANNELS 6 Xposition Yposition Zposition Zrotation Xrotation Yrotation 
					JOINT UpperArm_R
					{
						OFFSET -5.34813 0.0 0.0
						CHANNELS 6 Xposition Yposition Zposition Zrotation Xrotation Yrotation 
						JOINT LowerArm_R
						{
							OFFSET -24.3289 0.000322201 0.0
							CHANNELS 6 Xposition Yposition Zposition Zrotation Xrotation Yrotation 
							JOINT Hand_R
							{
								OFFSET -22.2915 -0.000108084 0.0
								CHANNELS 6 Xposition Yposition Zposition Zrotation Xrotation Yrotation 
								End Site
								{
									OFFSET 0.0 0.0 0.0
								}
							}
						}
					}
				}
			}
		}
		JOINT UpperLeg_L
		{
			OFFSET -2.19248 -6.46944 0.0
			CHANNELS 6 Xposition Yposition Zposition Zrotation Xrotation Yrotation 
			JOINT LowerLeg_L
			{
				OFFSET 39.0811 0.0 -1.23785e-05
				CHANNELS 6 Xposition Yposition Zposition Zrotation Xrotation Yrotation 
				JOINT Foot_L
				{
					OFFSET 40.9854 0.0 -1.26872e-05
					CHANNELS 6 Xposition Yposition Zposition Zrotation Xrotation Yrotation 
					JOINT Toes_L
					{
						OFFSET 11.7543 0.0 0.0
						CHANNELS 6 Xposition Yposition Zposition Zrotation Xrotation Yrotation 
						End Site
						{
							OFFSET 0.0 0.0 0.0
						}
					}
				}
			}
		}
		JOINT UpperLeg_R
		{
			OFFSET -2.19251 6.46944 0.0
			CHANNELS 6 Xposition Yposition Zposition Zrotation Xrotation Yrotation 
			JOINT LowerLeg_R
			{
				OFFSET -39.0811 -0.00228153 -0.0401928
				CHANNELS 6 Xposition Yposition Zposition Zrotation Xrotation Yrotation 
				JOINT Foot_R
				{
					OFFSET -40.9854 0.0 0.0
					CHANNELS 6 Xposition Yposition Zposition Zrotation Xrotation Yrotation 
					JOINT Toes_R
					{
						OFFSET -11.7543 0.0 0.0
						CHANNELS 6 Xposition Yposition Zposition Zrotation Xrotation Yrotation 
						End Site
						{
							OFFSET 0.0 0.0 0.0
						}
					}
				}
			}
		}
	}
}
MOTION
Frames:	4
Frame Time:	0.0333333
0.000000 0.000000 0.000000 0.000000 0.000000 -0.000000 10.359300 79.593500 -398.237000 92.401100 3.967400 -14.640400 15.735700 0.000005 -0.000001 73.909700 80.615600 -75.575100 8.984550 -0.406207 -0.000000 10.224400 -5.203180 -2.864500 16.377300 -0.000001 -0.000001 -1.821570 -3.963370 0.730509 6.456720 -0.000001 -0.000000 -7.251130 -3.678580 8.011430 12.994200 -0.242716 4.980390 -90.403600 1.465400 -74.600900 5.348090 -0.000007 -0.000001 -61.150400 15.887200 -40.638000 24.328600 0.000019 0.000005 13.474700 2.571490 -79.398100 22.291600 -0.000001 0.000005 10.171900 5.497780 -6.444940 12.994500 -0.242716 -4.980390 87.992900 8.598070 -76.806900 -5.348130 -0.000001 -0.000004 -64.298800 41.308000 12.174800 -24.328900 0.000322 -0.000009 -3.398760 -5.023250 -34.134000 -22.291500 -0.000108 -0.000004 9.483320 5.551890 -8.796470 -2.192480 -6.469440 -0.000000 178.947000 -3.432770 -24.331800 39.081100 -0.000007 -0.000012 -0.536470 0.339002 57.711900 40.985400 -0.000006 -0.000013 -1.330960 0.042506 -98.137300 11.754300 -0.000000 0.000003 -0.000044 -0.000503 -16.597100 -2.192510 6.469440 -0.000001 -172.446000 10.679000 120.584000 -39.081100 -0.002282 -0.040193 -0.611807 -0.555082 132.056000 -40.985400 0.000008 0.000006 14.288300 -9.233830 -38.258100 -11.754300 -0.000006 -0.000006 -0.024830 -0.192709 -24.456800
0.000000 0.000000 0.000000 0.000000 0.000000 -0.000000 9.383360 81.065800 -388.308000 89.489700 7.317980 -15.226500 15.735700 0.000005 -0.000001 62.340400 80.645500 -62.146900 8.984550 -0.406207 -0.000000 8.894830 -8.638870 1.060490 16.377300 -0.000001 -0.000001 -1.287520 -3.450680 0.340358 6.456720 -0.000001 -0.000000 -6.763270 -0.832296 7.139460 12.994200 -0.242716 4.980390 -89.324700 -2.534880 -75.078500 5.348090 -0.000007 -0.000001 -61.208400 13.499600 -47.004000 24.328600 0.000019 0.000005 9.492030 -0.121928 -90.731600 22.291600 -0.000001 0.000005 11.609400 5.471850 -5.439900 12.994500 -0.242716 -4.980390 88.313100 5.916950 -74.055500 -5.348130 -0.000001 -0.000004 -65.943200 47.478800 23.136400 -24.328900 0.000322 -0.000009 -5.290410 -6.094430 -41.089700 -22.291500 -0.000108 -0.000004 7.011660 5.564660 -9.418770 -2.192480 -6.469440 -0.000000 -175.198000 -4.239420 -12.494700 39.081100 -0.000007 -0.000012 -0.046181 0.046184 45.000400 40.985400 -0.000006 -0.000013 0.557717 3.489670 -93.960800 11.754300 -0.000000 0.000003 -1.317900 -1.542660 -19.912300 -2.192510 6.469440 -0.000001 -167.162000 8.470370 113.995000 -39.081100 -0.002282 -0.040193 -0.494523 -0.376202 127.069000 -40.985400 0.000008 0.000006 12.032700 -11.776800 -48.687100 -11.754300 -0.000006 -0.000006 -0.021995 -0.178097 -23.853400
0.000000 0.000000 0.000000 0.000000 0.000000 -0.000000 8.560240 83.818200 -378.110000 86.517700 9.654680 -17.786500 15.735700 0.000005 -0.000001 50.304900 81.085700 -48.212200 8.984550 -0.406207 -0.000000 6.260590 -11.383600 4.816030 16.377300 -0.000001 -0.000001 -0.364695 -2.872780 0.129301 6.456720 -0.000001 -0.000000 -5.962310 1.434090 6.019610 12.994200 -0.242716 4.980390 -88.221100 -6.485420 -74.625600 5.348090 -0.000007 -0.000001 -62.965700 11.961500 -48.408000 24.328600 0.000019 0.000005 7.583210 -1.227690 -99.143000 22.291600 -0.000001 0.000005 10.514900 5.436630 -4.167050 12.994500 -0.242716 -4.980390 89.502600 1.562730 -72.341300 -5.348130 -0.000001 -0.000004 -68.915000 47.147500 31.328400 -24.328900 0.000322 -0.000009 -5.123130 -4.789540 -47.030300 -22.291500 -0.000108 -0.000004 5.285600 5.566100 -9.490370 -2.192480 -6.469440 -0.000000 -170.065000 -2.943490 -5.493420 39.081100 -0.000007 -0.000012 -0.051794 0.076545 34.084900 40.985400 -0.000006 -0.000013 -1.433290 4.737100 -77.543400 11.754300 -0.000000 0.000003 -0.095718 -0.433821 -34.662800 -2.192510 6.469440 -0.000001 -164.854000 4.727180 109.597000 -39.081100 -0.002282 -0.040193 -0.184136 -0.087040 114.883000 -40.985400 0.000008 0.000006 9.369170 -10.602500 -58.495200 -11.754300 -0.000006 -0.000006 -0.019305 -0.163408 -23.248000
0.000000 0.000000 0.000000 0.000000 0.000000 -0.000000 7.920840 87.068800 -368.163000 85.774600 10.599400 -20.376100 15.735700 0.000005 -0.000001 41.355100 81.340700 -38.232600 8.984550 -0.406207 -0.000000 4.132180 -13.080700 6.733230 16.377300 -0.000001 -0.000001 0.124951 -2.308970 -0.044985 6.456720 -0.000001 -0.000000 -6.036750 3.119400 4.872110 12.994200 -0.242716 4.980390 -87.496800 -8.797710 -74.048300 5.348090 -0.000007 -0.000001 -63.572100 12.063100 -48.085900 24.328600 0.000019 0.000005 7.417020 -1.893800 -104.244000 22.291600 -0.000001 0.000005 8.630330 5.413600 -3.384370 12.994500 -0.242716 -4.980390 90.794100 -2.375440 -71.508500 -5.348130 -0.000001 -0.000004 -72.115500 43.377600 36.948800 -24.328900 0.000322 -0.000009 -5.433670 -4.233870 -52.177000 -22.291500 -0.000108 -0.000004 6.924210 5.574970 -9.945730 -2.192480 -6.469440 -0.000000 -166.687000 -9.945790 -2.540560 39.081100 -0.000007 -0.000012 -0.008569 0.017059 26.673200 40.985400 -0.000006 -0.000013 -2.799510 10.299600 -51.387700 11.754300 -0.000000 0.000003 -0.256165 -0.731158 -48.394000 -2.192510 6.469440 -0.000001 -165.830000 2.145790 108.100000 -39.081100 -0.002282 -0.040193 0.032128 0.003771 97.631300 -40.985400 0.000008 0.000006 8.729920 -11.421000 -64.137600 -11.754300 -0.000006 -0.000006 -0.018240 -0.157335 -22.998100
